<svg xmlns="http://www.w3.org/2000/svg" xmlns:xlink="http://www.w3.org/1999/xlink" width="500" zoomAndPan="magnify" viewBox="0 0 375 374.999991" height="500" preserveAspectRatio="xMidYMid meet" version="1.0"><defs><g/><clipPath id="f9bd01bbb9"><path d="M 37.5 93.101562 L 175.5 93.101562 L 175.5 243.101562 L 37.5 243.101562 Z M 37.5 93.101562 " clip-rule="nonzero"/></clipPath></defs><g clip-path="url(#f9bd01bbb9)"><path fill="#ffffff" d="M 136.324219 134.191406 C 136.324219 133.160156 137.160156 132.324219 138.191406 132.324219 C 139.222656 132.324219 140.058594 133.160156 140.058594 134.191406 C 140.058594 135.222656 139.222656 136.058594 138.191406 136.058594 C 137.160156 136.058594 136.324219 135.222656 136.324219 134.191406 Z M 160.058594 125.933594 C 159.425781 125.367188 158.488281 125.296875 157.78125 125.769531 L 149.007812 131.601562 C 148.574219 129.792969 147.691406 128.105469 146.429688 126.710938 L 160.273438 119.847656 L 170.761719 135.488281 L 160.058594 125.929688 Z M 161.828125 156.640625 L 143.300781 160.023438 L 138.570312 145.308594 C 140.449219 145.238281 142.273438 144.699219 143.875 143.75 L 145.808594 154.113281 C 145.964844 154.945312 146.667969 155.570312 147.511719 155.628906 Z M 131.378906 131.3125 C 129.792969 135.070312 131.558594 139.417969 135.3125 141.003906 C 139.070312 142.589844 143.417969 140.828125 145.003906 137.070312 C 146.589844 133.3125 144.828125 128.964844 141.070312 127.378906 C 140.132812 126.984375 139.160156 126.796875 138.203125 126.796875 C 135.316406 126.796875 132.570312 128.496094 131.378906 131.3125 Z M 99.734375 110.679688 C 99.734375 110.636719 99.730469 110.589844 99.730469 110.550781 L 129.9375 126.734375 C 129.121094 127.632812 128.4375 128.683594 127.941406 129.863281 C 127.441406 131.042969 127.167969 132.261719 127.089844 133.472656 L 94.550781 123.132812 C 97.75 119.949219 99.734375 115.542969 99.734375 110.683594 Z M 70.839844 159.480469 C 67.957031 153.703125 61.988281 149.722656 55.105469 149.722656 C 53.183594 149.722656 51.339844 150.039062 49.609375 150.609375 L 68.226562 121.398438 C 71.445312 125.566406 76.488281 128.261719 82.152344 128.261719 C 82.816406 128.261719 83.46875 128.21875 84.117188 128.148438 Z M 105.691406 198.441406 C 94.121094 198.441406 84.136719 205.375 79.667969 215.296875 L 55.257812 184.886719 C 63.667969 184.816406 70.6875 178.808594 72.324219 170.859375 L 106.601562 198.460938 C 106.300781 198.453125 106 198.445312 105.691406 198.445312 Z M 130.429688 225.429688 C 129.632812 212.476562 118.84375 202.179688 105.691406 202.179688 C 92.542969 202.179688 81.753906 212.476562 80.957031 225.429688 L 87.910156 225.429688 C 88.695312 216.300781 96.367188 209.117188 105.691406 209.117188 C 115.019531 209.117188 122.691406 216.304688 123.476562 225.429688 Z M 91.65625 225.429688 L 119.726562 225.429688 C 118.957031 218.367188 112.957031 212.851562 105.691406 212.851562 C 98.429688 212.851562 92.429688 218.367188 91.65625 225.429688 Z M 148.726562 237.304688 L 148.726562 239.359375 L 62.660156 239.359375 L 62.660156 237.304688 C 62.660156 232.816406 66.308594 229.164062 70.800781 229.164062 L 140.585938 229.164062 C 145.074219 229.164062 148.726562 232.816406 148.726562 237.304688 Z M 41.253906 167.308594 C 41.253906 174.945312 47.46875 181.15625 55.105469 181.15625 C 62.742188 181.15625 68.953125 174.945312 68.953125 167.308594 C 68.953125 159.667969 62.742188 153.457031 55.105469 153.457031 C 47.46875 153.457031 41.253906 159.667969 41.253906 167.308594 Z M 82.152344 96.828125 C 74.515625 96.828125 68.300781 103.039062 68.300781 110.675781 C 68.300781 118.3125 74.515625 124.527344 82.152344 124.527344 C 89.789062 124.527344 96 118.3125 96 110.675781 C 96 103.039062 89.789062 96.828125 82.152344 96.828125 Z M 174.753906 134.742188 L 162.464844 116.414062 C 161.941406 115.632812 160.925781 115.363281 160.085938 115.777344 L 143.089844 124.199219 C 142.902344 124.109375 142.71875 124.023438 142.523438 123.941406 C 139.40625 122.625 136.019531 122.84375 133.207031 124.25 L 99.085938 105.964844 C 97.019531 98.550781 90.214844 93.097656 82.152344 93.097656 C 72.453125 93.097656 64.566406 100.984375 64.566406 110.679688 C 64.566406 113.21875 65.113281 115.632812 66.085938 117.816406 L 41.992188 155.613281 C 39.214844 158.722656 37.519531 162.824219 37.519531 167.308594 C 37.519531 175.164062 42.699219 181.832031 49.820312 184.082031 L 78.1875 219.421875 C 77.652344 221.351562 77.320312 223.363281 77.207031 225.433594 L 70.800781 225.433594 C 64.253906 225.433594 58.925781 230.761719 58.925781 237.308594 L 58.925781 241.230469 C 58.925781 242.261719 59.757812 243.097656 60.792969 243.097656 L 150.59375 243.097656 C 151.625 243.097656 152.460938 242.261719 152.460938 241.230469 L 152.460938 237.308594 C 152.460938 230.761719 147.132812 225.433594 140.585938 225.433594 L 134.175781 225.433594 C 133.527344 213.308594 125.273438 203.167969 114.109375 199.714844 L 72.660156 166.335938 C 72.632812 165.90625 72.589844 165.480469 72.539062 165.058594 L 88.65625 127.011719 C 89.445312 126.699219 90.203125 126.328125 90.933594 125.902344 L 127.589844 137.550781 C 128.539062 140.546875 130.742188 143.125 133.859375 144.445312 C 134.054688 144.527344 134.246094 144.601562 134.4375 144.671875 L 140.25 162.730469 C 140.5 163.511719 141.230469 164.023438 142.027344 164.023438 C 142.136719 164.023438 142.25 164.015625 142.363281 163.992188 L 164.074219 160.027344 C 164.695312 159.914062 165.214844 159.5 165.460938 158.917969 L 166.808594 155.730469 C 167.039062 155.175781 166.992188 154.542969 166.679688 154.023438 C 166.363281 153.511719 165.820312 153.179688 165.21875 153.136719 L 149.214844 152.007812 L 147.128906 140.824219 C 147.648438 140.125 148.089844 139.359375 148.441406 138.527344 C 148.792969 137.691406 149.035156 136.835938 149.175781 135.980469 L 158.652344 129.683594 L 170.613281 140.367188 C 170.957031 140.675781 171.402344 140.84375 171.859375 140.84375 C 171.996094 140.84375 172.132812 140.828125 172.265625 140.796875 C 172.855469 140.667969 173.34375 140.257812 173.578125 139.703125 L 174.925781 136.511719 C 175.167969 135.929688 175.105469 135.269531 174.753906 134.742188 Z M 82.152344 105.230469 C 85.152344 105.230469 87.597656 107.675781 87.597656 110.675781 C 87.597656 113.679688 85.152344 116.125 82.152344 116.125 C 79.148438 116.125 76.703125 113.679688 76.703125 110.675781 C 76.703125 107.675781 79.148438 105.230469 82.152344 105.230469 Z M 82.152344 119.859375 C 77.085938 119.859375 72.96875 115.742188 72.96875 110.679688 C 72.96875 105.617188 77.085938 101.5 82.152344 101.5 C 87.214844 101.5 91.332031 105.617188 91.332031 110.679688 C 91.332031 115.742188 87.214844 119.859375 82.152344 119.859375 Z M 49.65625 167.308594 C 49.65625 170.308594 52.101562 172.753906 55.105469 172.753906 C 58.105469 172.753906 60.550781 170.308594 60.550781 167.308594 C 60.550781 164.304688 58.105469 161.859375 55.105469 161.859375 C 52.101562 161.859375 49.65625 164.304688 49.65625 167.308594 Z M 64.285156 167.308594 C 64.285156 162.246094 60.167969 158.125 55.105469 158.125 C 50.039062 158.125 45.921875 162.242188 45.921875 167.308594 C 45.921875 172.371094 50.039062 176.488281 55.105469 176.488281 C 60.167969 176.488281 64.285156 172.371094 64.285156 167.308594 Z M 64.285156 167.308594 " fill-opacity="1" fill-rule="evenodd"/></g><g fill="#ffffff" fill-opacity="1"><g transform="translate(126.039723, 192.166247)"><g><path d="M 13.3125 0.6875 C 10.59375 0.6875 8.300781 0.234375 6.4375 -0.671875 C 4.570312 -1.585938 3.160156 -2.859375 2.203125 -4.484375 C 1.242188 -6.109375 0.765625 -7.972656 0.765625 -10.078125 L 0.765625 -11.125 C 0.765625 -13.25 1.242188 -15.117188 2.203125 -16.734375 C 3.160156 -18.347656 4.570312 -19.609375 6.4375 -20.515625 C 8.300781 -21.421875 10.59375 -21.875 13.3125 -21.875 C 16.039062 -21.875 18.328125 -21.421875 20.171875 -20.515625 C 22.023438 -19.609375 23.429688 -18.347656 24.390625 -16.734375 C 25.359375 -15.117188 25.84375 -13.25 25.84375 -11.125 L 25.84375 -10.078125 C 25.84375 -7.972656 25.359375 -6.109375 24.390625 -4.484375 C 23.429688 -2.859375 22.023438 -1.585938 20.171875 -0.671875 C 18.328125 0.234375 16.039062 0.6875 13.3125 0.6875 Z M 13.3125 -6.796875 C 14.226562 -6.796875 14.941406 -7.085938 15.453125 -7.671875 C 15.972656 -8.265625 16.234375 -9.253906 16.234375 -10.640625 C 16.234375 -11.972656 15.972656 -12.929688 15.453125 -13.515625 C 14.941406 -14.109375 14.226562 -14.40625 13.3125 -14.40625 C 12.40625 -14.40625 11.6875 -14.109375 11.15625 -13.515625 C 10.625 -12.929688 10.359375 -11.972656 10.359375 -10.640625 C 10.359375 -9.253906 10.625 -8.265625 11.15625 -7.671875 C 11.6875 -7.085938 12.40625 -6.796875 13.3125 -6.796875 Z M 13.3125 -6.796875 "/></g></g></g><g fill="#ffffff" fill-opacity="1"><g transform="translate(152.637084, 192.166247)"><g><path d="M 17.875 -21.875 C 19.53125 -21.875 21.035156 -21.445312 22.390625 -20.59375 C 23.753906 -19.738281 24.835938 -18.507812 25.640625 -16.90625 C 26.441406 -15.3125 26.84375 -13.382812 26.84375 -11.125 L 26.84375 -10.078125 C 26.84375 -7.835938 26.441406 -5.910156 25.640625 -4.296875 C 24.835938 -2.679688 23.78125 -1.445312 22.46875 -0.59375 C 21.164062 0.257812 19.726562 0.6875 18.15625 0.6875 C 16.6875 0.6875 15.363281 0.3125 14.1875 -0.4375 C 13.019531 -1.1875 12.09375 -2.296875 11.40625 -3.765625 L 11.40625 8 L 1.796875 8 L 1.796875 -21.203125 L 6.5625 -21.203125 L 9.515625 -14.71875 C 10.046875 -17.09375 11.046875 -18.878906 12.515625 -20.078125 C 13.984375 -21.273438 15.769531 -21.875 17.875 -21.875 Z M 14.3125 -6.953125 C 15.226562 -6.953125 15.941406 -7.238281 16.453125 -7.8125 C 16.972656 -8.394531 17.234375 -9.320312 17.234375 -10.59375 C 17.234375 -11.875 16.972656 -12.800781 16.453125 -13.375 C 15.941406 -13.945312 15.226562 -14.234375 14.3125 -14.234375 C 13.4375 -14.234375 12.734375 -13.941406 12.203125 -13.359375 C 11.671875 -12.773438 11.40625 -11.851562 11.40625 -10.59375 C 11.40625 -9.34375 11.671875 -8.421875 12.203125 -7.828125 C 12.734375 -7.242188 13.4375 -6.953125 14.3125 -6.953125 Z M 14.3125 -6.953125 "/></g></g></g><g fill="#ffffff" fill-opacity="1"><g transform="translate(180.234338, 192.166247)"><g><path d="M 25.59375 -11.953125 C 25.59375 -11.421875 25.578125 -10.9375 25.546875 -10.5 C 25.523438 -10.0625 25.488281 -9.613281 25.4375 -9.15625 L 10.046875 -9.15625 C 10.171875 -8.007812 10.488281 -7.21875 11 -6.78125 C 11.507812 -6.34375 12.148438 -6.125 12.921875 -6.125 C 13.691406 -6.125 14.269531 -6.253906 14.65625 -6.515625 C 15.039062 -6.785156 15.328125 -7.132812 15.515625 -7.5625 L 25.3125 -7.5625 C 25.15625 -6.0625 24.628906 -4.6875 23.734375 -3.4375 C 22.847656 -2.1875 21.539062 -1.1875 19.8125 -0.4375 C 18.09375 0.3125 15.898438 0.6875 13.234375 0.6875 C 10.546875 0.6875 8.273438 0.234375 6.421875 -0.671875 C 4.566406 -1.585938 3.160156 -2.859375 2.203125 -4.484375 C 1.242188 -6.109375 0.765625 -7.972656 0.765625 -10.078125 L 0.765625 -11.125 C 0.765625 -13.25 1.242188 -15.117188 2.203125 -16.734375 C 3.160156 -18.347656 4.578125 -19.609375 6.453125 -20.515625 C 8.335938 -21.421875 10.640625 -21.875 13.359375 -21.875 C 16.023438 -21.875 18.265625 -21.441406 20.078125 -20.578125 C 21.890625 -19.710938 23.257812 -18.53125 24.1875 -17.03125 C 25.125 -15.539062 25.59375 -13.847656 25.59375 -11.953125 Z M 13.15625 -15.40625 C 12.332031 -15.40625 11.671875 -15.21875 11.171875 -14.84375 C 10.679688 -14.46875 10.332031 -13.800781 10.125 -12.84375 L 16 -12.84375 C 15.894531 -13.769531 15.601562 -14.425781 15.125 -14.8125 C 14.644531 -15.207031 13.988281 -15.40625 13.15625 -15.40625 Z M 13.15625 -15.40625 "/></g></g></g><g fill="#ffffff" fill-opacity="1"><g transform="translate(206.591716, 192.166247)"><g><path d="M 15.6875 -21.875 C 16.351562 -21.875 16.929688 -21.828125 17.421875 -21.734375 C 17.910156 -21.640625 18.300781 -21.554688 18.59375 -21.484375 L 18.59375 -11.3125 C 18.164062 -11.375 17.671875 -11.414062 17.109375 -11.4375 C 16.554688 -11.46875 15.945312 -11.484375 15.28125 -11.484375 C 13.894531 -11.484375 12.945312 -11.164062 12.4375 -10.53125 C 11.9375 -9.90625 11.6875 -8.769531 11.6875 -7.125 L 11.6875 0 L 1.796875 0 L 1.796875 -21.203125 L 6.515625 -21.203125 L 9.796875 -14.59375 C 10.085938 -16.46875 10.515625 -17.929688 11.078125 -18.984375 C 11.640625 -20.035156 12.316406 -20.78125 13.109375 -21.21875 C 13.910156 -21.65625 14.769531 -21.875 15.6875 -21.875 Z M 15.6875 -21.875 "/></g></g></g><g fill="#ffffff" fill-opacity="1"><g transform="translate(225.789808, 192.166247)"><g><path d="M 13.203125 -21.875 C 17.273438 -21.875 20.25 -20.976562 22.125 -19.1875 C 24.007812 -17.40625 24.953125 -14.78125 24.953125 -11.3125 L 24.953125 0 L 20.203125 0 L 17.203125 -5.640625 C 16.640625 -3.585938 15.582031 -2.019531 14.03125 -0.9375 C 12.488281 0.144531 10.492188 0.6875 8.046875 0.6875 C 5.640625 0.6875 3.835938 0.160156 2.640625 -0.890625 C 1.441406 -1.953125 0.84375 -3.28125 0.84375 -4.875 C 0.84375 -6.375 1.234375 -7.632812 2.015625 -8.65625 C 2.804688 -9.6875 4.0625 -10.535156 5.78125 -11.203125 C 7.5 -11.867188 9.742188 -12.398438 12.515625 -12.796875 L 15.4375 -13.234375 C 15.351562 -13.929688 15.128906 -14.425781 14.765625 -14.71875 C 14.410156 -15.007812 13.863281 -15.15625 13.125 -15.15625 C 12.375 -15.15625 11.820312 -15.015625 11.46875 -14.734375 C 11.125 -14.453125 10.898438 -14.085938 10.796875 -13.640625 L 1.203125 -13.640625 C 1.359375 -15.160156 1.867188 -16.539062 2.734375 -17.78125 C 3.609375 -19.019531 4.90625 -20.007812 6.625 -20.75 C 8.34375 -21.5 10.535156 -21.875 13.203125 -21.875 Z M 11.875 -5.953125 C 12.945312 -5.953125 13.832031 -6.289062 14.53125 -6.96875 C 15.238281 -7.65625 15.59375 -8.492188 15.59375 -9.484375 L 14.40625 -9.234375 C 11.757812 -8.734375 10.4375 -8.003906 10.4375 -7.046875 C 10.4375 -6.742188 10.554688 -6.484375 10.796875 -6.265625 C 11.035156 -6.054688 11.394531 -5.953125 11.875 -5.953125 Z M 11.875 -5.953125 "/></g></g></g><g fill="#ffffff" fill-opacity="1"><g transform="translate(252.147186, 192.166247)"><g><path d="M 17.484375 -21.875 C 19.910156 -21.875 21.882812 -21.0625 23.40625 -19.4375 C 24.925781 -17.8125 25.6875 -15.492188 25.6875 -12.484375 L 25.6875 0 L 16.078125 0 L 16.078125 -10.5625 C 16.078125 -11.707031 15.890625 -12.5 15.515625 -12.9375 C 15.140625 -13.375 14.609375 -13.59375 13.921875 -13.59375 C 13.171875 -13.59375 12.5625 -13.316406 12.09375 -12.765625 C 11.632812 -12.222656 11.40625 -11.351562 11.40625 -10.15625 L 11.40625 0 L 1.796875 0 L 1.796875 -21.203125 L 6.59375 -21.203125 L 9.5625 -14.765625 C 10.09375 -17.242188 11.050781 -19.046875 12.4375 -20.171875 C 13.820312 -21.304688 15.503906 -21.875 17.484375 -21.875 Z M 17.484375 -21.875 "/></g></g></g><g fill="#ffffff" fill-opacity="1"><g transform="translate(279.224501, 192.166247)"><g><path d="M 21.59375 -21.203125 L 21.59375 -13.5625 L 14.203125 -13.5625 L 14.203125 -10.234375 C 14.203125 -9.359375 14.28125 -8.691406 14.4375 -8.234375 C 14.601562 -7.785156 14.925781 -7.476562 15.40625 -7.3125 C 15.882812 -7.15625 16.585938 -7.078125 17.515625 -7.078125 C 18.367188 -7.078125 19.140625 -7.125 19.828125 -7.21875 C 20.523438 -7.3125 21.128906 -7.410156 21.640625 -7.515625 L 21.640625 0 C 21.054688 0.132812 20.203125 0.28125 19.078125 0.4375 C 17.960938 0.601562 16.695312 0.6875 15.28125 0.6875 C 11.519531 0.6875 8.832031 -0.0820312 7.21875 -1.625 C 5.601562 -3.175781 4.796875 -5.582031 4.796875 -8.84375 L 4.796875 -13.5625 L 0.515625 -13.5625 L 0.515625 -21.203125 L 5.125 -21.203125 L 8.3125 -27.484375 L 14.203125 -27.484375 L 14.203125 -21.203125 Z M 21.59375 -21.203125 "/></g></g></g><g fill="#ffffff" fill-opacity="1"><g transform="translate(302.102223, 192.166247)"><g><path d="M 21.71875 -14.765625 L 29.078125 0 L 18.046875 0 L 14.359375 -8.84375 L 10.71875 0 L -0.3125 0 L 7.046875 -14.765625 L -0.359375 -29.203125 L 10.84375 -29.203125 L 14.40625 -20.5625 L 17.921875 -29.203125 L 29.078125 -29.203125 Z M 21.71875 -14.765625 "/></g></g></g></svg>